<svg t="1697221162679" class="icon" viewBox="0 0 1216 1024" version="1.1" xmlns="http://www.w3.org/2000/svg" p-id="15246"><path d="M393.536 278.272c32.736-64.704 61.728-117.12 110.784-154.848 57.792-44.48 113.984-44.48 172.032 0.48 48.8 37.888 77.856 90.304 105.408 145.056 3.552-1.152 6.656-2.752 9.408-4.8l-0.096 0.064c77.152-78.496 148.736-74.656 212.416 13.888 53.632 74.4 72.736 161.504 85.984 250.304 1.92 12.768-3.36 17.024-15.008 16.704h-24.096c-307.456 0-614.88-0.48-922.336 0.736-34.592 0-42.624-8.032-35.488-42.304 13.728-66.72 28.896-132.448 61.888-192.736a252.48 252.48 0 0 1 48.064-63.744l0.096-0.096c55.552-51.68 115.424-51.68 170.016 0.8 7.456 8.96 14.4 18.944 20.416 29.504l0.544 1.024z m3.776 477.312c-24.096 0.64-57.792-16.928-88.288-42.4-51.456-42.784-72.256-41.728-126.816-2.336-12.608 9.056-24.96 40.128-46.144 16.608-30.272-33.312-28.576-65.664-1.376-87.168 77.696-61.568 146.656-60.928 224.032 2.08 42.304 34.528 67.904 36.352 109.568 2.656 71.776-57.952 152.512-75.552 235.776 4.576 26.816 25.76 57.952 24.096 88.288 5.696 13.632-8.032 25.376-19.424 38.528-28.512 73.536-50.88 185.344-34.048 230.784 39.648 13.408 21.664-9.536 49.6-22.4 71.136-10.848 18.144-25.76-0.64-32.096-7.392-57.568-61.088-109.344-53.952-172.096-1.696-56.192 46.464-129.312 34.912-186.944-13.568-52.672-44.32-69.984-44.544-125.152-1.92-42.048 32.672-68.704 43.36-125.632 42.56z m339.712 176.608c-21.824 0-54.016-16.704-83.232-41.728-48.8-41.888-69.984-42.24-118.72-3.776-80.288 63.168-144.48 62.944-222.688-0.896-21.024-17.024-42.208-32.096-72.256-26.016-13.472 2.72-61.664-45.28-61.664-59.168s11.552-12.288 19.584-15.584c59.168-24.096 112.384-10.528 160.544 27.52 59.072 46.304 70.72 46.56 131.744 0.8 73.696-55.232 142.72-54.176 210.784 3.2 47.52 40.128 68.64 41.088 118.976 2.496 45.12-34.592 92.384-57.152 151.392-40.704 27.36 8.032 40.128 17.408 16.064 43.264-17.728 18.88-30.496 40.864-64.224 38.848-23.36-1.376-42.784 19.104-61.664 34.112-31.616 24.736-66.72 38.944-124.672 37.568z" p-id="15247"></path></svg>