<svg viewBox="0 0 600 600" fill="" xmlns="http://www.w3.org/2000/svg" xmlns:xlink="http://www.w3.org/1999/xlink">
	<path id="left" d="M351 300C351 231.027 294.973 175 226 175C157.027 175 101 231.027 101 300C101 368.973 157.027 424.5 226 424.5C294.973 424.5 351 368.973 351 300ZM226 228.571C220.359 228.571 214.867 229.204 209.525 230.467C205.692 231.374 201.936 232.607 198.257 234.164C194.494 235.757 190.919 237.641 187.53 239.816C183.224 242.58 179.219 245.813 175.516 249.516C171.813 253.219 168.579 257.224 165.816 261.53C163.641 264.919 161.757 268.494 160.164 272.257C158.607 275.936 157.374 279.692 156.468 283.524C155.204 288.867 154.571 294.359 154.571 300C154.571 305.641 155.204 311.132 156.467 316.475C157.374 320.308 158.607 324.064 160.164 327.743C161.757 331.505 163.641 335.081 165.815 338.469C168.579 342.775 171.813 346.781 175.516 350.484C179.219 354.188 183.225 357.422 187.531 360.185C190.92 362.359 194.495 364.243 198.257 365.836C201.936 367.393 205.692 368.626 209.525 369.533C214.867 370.796 220.359 370.929 226 370.929C231.641 370.929 237.132 370.796 242.474 369.533C246.307 368.626 250.064 367.393 253.743 365.836C257.506 364.243 261.082 362.359 264.471 360.184C268.777 357.42 272.781 354.187 276.484 350.484C280.187 346.781 283.42 342.777 286.184 338.471C288.359 335.082 290.243 331.506 291.836 327.743C293.394 324.064 294.626 320.307 295.533 316.474C296.797 311.132 297.429 305.641 297.429 300C297.429 294.359 296.797 288.867 295.533 283.524C294.626 279.692 293.393 275.936 291.836 272.257C290.243 268.495 288.359 264.919 286.185 261.53C283.421 257.224 280.188 253.219 276.484 249.516C272.781 245.813 268.776 242.579 264.47 239.816C261.081 237.641 257.505 235.757 253.743 234.164C250.064 232.607 246.309 231.375 242.476 230.467C237.133 229.204 231.641 228.571 226 228.571Z" fill="" fill-opacity="1.000000" fill-rule="evenodd"/>
	<rect id="r1" x="379.999969" y="361.000000" width="125.000000" height="53.000000" fill="" fill-opacity="1.000000"/>
</svg>
